PathFileType	4	(X/Y/Z)	/Users/itak/Documents/Research/Walk-IL/dataset/trc/00499_00183.trc
DataRate	CameraRate	NumFrames	NumMarkers	Units	OrigDataRate	OrigDataStartFrame	OrigNumFrames
100.000000	100.000000	4	53	mm	100.000000	83	671
Frame#	Time	RPSI			LPSI			L3			STRN			T10			C7			CLAV			RBAK			LBAK			LSHO			LUPA			LAEL			LAOL			LWTS			LWPS			LFRA			LIFD			LHPS			LHTS			RSHO			RUPA			RAEL			RAOL			RWTS			RWPS			RFRA			RIFD			RHTS			RHPS			RBHD			LFHD			RFHD			LBHD			LHIP			RHIP			RASI			LASI			LKNE			LTHI			LANK			LTIP			LTOE			LMT1			LMT5			LHEE			RKNE			RTHI			RANK			RTIP			RTOE			RMT1			RMT5			RHEE			
		X1	Y1	Z1	X2	Y2	Z2	X3	Y3	Z3	X4	Y4	Z4	X5	Y5	Z5	X6	Y6	Z6	X7	Y7	Z7	X8	Y8	Z8	X9	Y9	Z9	X10	Y10	Z10	X11	Y11	Z11	X12	Y12	Z12	X13	Y13	Z13	X14	Y14	Z14	X15	Y15	Z15	X16	Y16	Z16	X17	Y17	Z17	X18	Y18	Z18	X19	Y19	Z19	X20	Y20	Z20	X21	Y21	Z21	X22	Y22	Z22	X23	Y23	Z23	X24	Y24	Z24	X25	Y25	Z25	X26	Y26	Z26	X27	Y27	Z27	X28	Y28	Z28	X29	Y29	Z29	X30	Y30	Z30	X31	Y31	Z31	X32	Y32	Z32	X33	Y33	Z33	X34	Y34	Z34	X35	Y35	Z35	X36	Y36	Z36	X37	Y37	Z37	X38	Y38	Z38	X39	Y39	Z39	X40	Y40	Z40	X41	Y41	Z41	X42	Y42	Z42	X43	Y43	Z43	X44	Y44	Z44	X45	Y45	Z45	X46	Y46	Z46	X47	Y47	Z47	X48	Y48	Z48	X49	Y49	Z49	X50	Y50	Z50	X51	Y51	Z51	X52	Y52	Z52	X53	Y53	Z53	

84	0.8300000000000001	-1163.70068359375	975.8692016601562	-418.3196716308594	-1103.33154296875	973.4461059570312	-527.188720703125	-1148.77978515625	1033.660888671875	-482.6335754394531	-941.6224365234375	1199.259155273438	-397.7083740234375	-1162.366088867188	1140.54638671875	-485.1801147460938	-1118.080810546875	1370.332763671875	-469.2528686523438	-974.7725830078125	1293.862915039062	-412.4977416992188	-1194.903564453125	1250.55517578125	-405.5785827636719	-1109.803588867188	1315.017578125	-558.7006225585938	-993.78271484375	1359.526245117188	-593.6985473632812	-983.7189331054688	1232.528198242188	-653.8992309570312	-970.335693359375	1022.730163574219	-674.4710693359375	-1062.883666992188	1015.92919921875	-639.02490234375	-903.0682373046875	836.4210205078125	-604.1915893554688	-958.2774047851562	801.4573974609375	-671.4019165039062	-955.1218872070312	941.9359741210938	-669.6517333984375	-904.273193359375	679.5321044921875	-595.67529296875	-937.432861328125	746.7617797851562	-658.60205078125	-886.4656982421875	758.2481689453125	-620.1544799804688	-1120.735595703125	1367.428833007812	-310.4494018554688	-1156.72998046875	1299.743408203125	-262.0404357910156	-1156.161254882812	1031.0634765625	-217.6685180664062	-1195.907104492188	1014.705444335938	-268.4633483886719	-1046.430786132812	830.400634765625	-225.8395538330078	-1130.822265625	806.8269653320312	-199.4856719970703	-1151.833251953125	976.8945922851562	-210.3161926269531	-1042.488525390625	671.1961059570312	-227.9698028564453	-1037.221923828125	736.4653930664062	-200.3686981201172	-1108.035034179688	733.1363525390625	-194.5921020507812	-1114.232666015625	1528.353881835938	-386.0750732421875	-931.9730224609375	1586.192626953125	-449.0836486816406	-995.678955078125	1581.76611328125	-338.2557067871094	-1048.473999023438	1530.166381835938	-531.2666015625	-952.8220825195312	898.0922241210938	-598.385986328125	-1127.539672851562	869.17822265625	-263.2302551269531	-1007.7509765625	908.5809936523438	-275.0295104980469	-900.9827880859375	924.2005615234375	-492.529052734375	-979.8614501953125	472.8381652832031	-571.920654296875	-951.643310546875	631.0325317382812	-582.9442749023438	-1072.923950195312	48.63789749145508	-595.2967529296875	-1012.338256835938	324.9174194335938	-588.4512329101562	-922.9808959960938	39.7787971496582	-454.7062072753906	-1006.398132324219	45.77833557128906	-459.3752136230469	-971.4953002929688	45.39204406738281	-555.1039428710938	-1141.98974609375	47.90095901489258	-559.2692260742188	-1149.052490234375	485.3988952636719	-282.5047607421875	-1117.035278320312	742.2220458984375	-246.2838592529297	-1185.186401367188	48.30816268920898	-321.656982421875	-1149.863891601562	344.0234375	-292.5525817871094	-979.9758911132812	43.3425407409668	-310.7198486328125	-1034.981689453125	52.08341598510742	-362.5711669921875	-1079.88330078125	46.46356201171875	-276.1242065429688	-1221.220825195312	38.79183578491211	-381.9549865722656	
85	0.84	-1163.4677734375	975.85302734375	-418.4795227050781	-1103.08251953125	973.416748046875	-527.3812255859375	-1148.559692382812	1033.62890625	-482.7418823242188	-941.439208984375	1199.239013671875	-397.8175048828125	-1162.171142578125	1140.514526367188	-485.3710327148438	-1117.902221679688	1370.308349609375	-469.4587097167969	-974.563720703125	1293.883911132812	-412.7044982910156	-1194.741943359375	1250.517456054688	-405.752685546875	-1109.608276367188	1315.014770507812	-558.890380859375	-993.5365600585938	1359.513549804688	-593.889892578125	-983.4584350585938	1232.55126953125	-654.0770874023438	-970.0851440429688	1022.733581542969	-674.5819091796875	-1062.61572265625	1015.897766113281	-639.1939086914062	-902.7405395507812	836.4591064453125	-604.2640991210938	-958.0031127929688	801.418701171875	-671.4968872070312	-954.8067626953125	941.901123046875	-669.7710571289062	-904.2164916992188	679.427734375	-595.781005859375	-937.0333251953125	746.7008666992188	-658.6434936523438	-886.21240234375	758.2097778320312	-620.1550903320312	-1120.586181640625	1367.420166015625	-310.6250915527344	-1156.538940429688	1299.74951171875	-262.2682495117188	-1155.959594726562	1031.0634765625	-217.8275756835938	-1195.7470703125	1014.690368652344	-268.5537414550781	-1046.2568359375	830.4414672851562	-225.9109649658203	-1130.562866210938	806.8189697265625	-199.6125183105469	-1151.62646484375	976.9038696289062	-210.4603881835938	-1042.214477539062	671.2300415039062	-228.1216888427734	-1036.98095703125	736.489013671875	-200.5071105957031	-1107.786865234375	733.154052734375	-194.6941680908203	-1114.08740234375	1528.3603515625	-386.1900329589844	-931.8289184570312	1586.162109375	-449.3360900878906	-995.4382934570312	1581.729125976562	-338.4718933105469	-1048.3134765625	1530.166259765625	-531.421630859375	-952.5321044921875	898.0425415039062	-598.5578002929688	-1126.859619140625	868.8257446289062	-263.1776733398438	-1007.584167480469	908.596435546875	-275.1470947265625	-900.7821655273438	924.2001953125	-492.6890563964844	-979.7083129882812	472.7967224121094	-571.9389038085938	-951.2764282226562	630.9398803710938	-583.0167846679688	-1072.934204101562	48.64460372924805	-595.2897338867188	-1012.209411621094	324.8991088867188	-588.47216796875	-922.9573364257812	39.76496124267578	-454.6861572265625	-1006.401245117188	45.77209854125977	-459.359619140625	-971.4961547851562	45.39556503295898	-555.1036987304688	-1141.979370117188	47.89291000366211	-559.2869262695312	-1148.923095703125	485.4353332519531	-282.5433349609375	-1116.871215820312	742.2463989257812	-246.3355102539062	-1185.181396484375	48.31699371337891	-321.6623840332031	-1149.724853515625	344.0071105957031	-292.6800842285156	-979.9678344726562	43.3386344909668	-310.7177124023438	-1034.974243164062	52.07817840576172	-362.5777587890625	-1079.878784179688	46.46424865722656	-276.1299133300781	-1221.220825195312	38.79867935180664	-381.9586181640625	
86	0.85	-1163.241088867188	975.8327026367188	-418.6355285644531	-1102.848266601562	973.3829956054688	-527.5531005859375	-1148.315063476562	1033.5908203125	-482.8679809570312	-941.2352905273438	1199.229736328125	-397.9388427734375	-1161.982666015625	1140.480712890625	-485.5541687011719	-1117.723510742188	1370.287353515625	-469.6635131835938	-974.3527221679688	1293.901977539062	-412.9140014648438	-1194.594848632812	1250.482421875	-405.9118957519531	-1109.422485351562	1315.010864257812	-559.0736083984375	-993.293212890625	1359.504272460938	-594.09228515625	-983.2044677734375	1232.584594726562	-654.2572631835938	-969.8448486328125	1022.725463867188	-674.6923828125	-1062.35009765625	1015.872436523438	-639.36376953125	-902.4197998046875	836.4908447265625	-604.3515014648438	-957.728271484375	801.3814697265625	-671.6068725585938	-954.5015869140625	941.8550415039062	-669.8878173828125	-904.1018676757812	679.3369140625	-595.845703125	-936.6550903320312	746.6259155273438	-658.6580810546875	-885.957275390625	758.1793823242188	-620.1639404296875	-1120.439086914062	1367.409301757812	-310.8099365234375	-1156.35009765625	1299.755615234375	-262.5019226074219	-1155.7646484375	1031.06689453125	-217.974365234375	-1195.5849609375	1014.675842285156	-268.6460266113281	-1046.085205078125	830.4835205078125	-225.9809722900391	-1130.308471679688	806.81103515625	-199.7275238037109	-1151.423706054688	976.9108276367188	-210.5970001220703	-1041.93359375	671.2676391601562	-228.2724304199219	-1036.733520507812	736.5169067382812	-200.6480255126953	-1107.536499023438	733.1736450195312	-194.7927703857422	-1113.94970703125	1528.369506835938	-386.3021850585938	-931.7041625976562	1586.118286132812	-449.5890808105469	-995.1907348632812	1581.6953125	-338.6878051757812	-1048.145141601562	1530.171630859375	-531.57666015625	-952.2586669921875	897.9867553710938	-598.7132568359375	-1126.349243164062	868.6117553710938	-263.2503967285156	-1007.4306640625	908.6127319335938	-275.2558898925781	-900.56494140625	924.2053833007812	-492.8605041503906	-979.52978515625	472.7621459960938	-571.9523315429688	-950.8873291015625	630.8584594726562	-583.05078125	-1072.943237304688	48.64982223510742	-595.2828979492188	-1012.078674316406	324.8805847167969	-588.48681640625	-922.9361572265625	39.74466323852539	-454.6777648925781	-1006.403015136719	45.7663688659668	-459.3415222167969	-971.4944458007812	45.39886856079102	-555.1016235351562	-1141.964965820312	47.88009262084961	-559.3133544921875	-1148.789306640625	485.4749450683594	-282.5816040039062	-1116.708251953125	742.27197265625	-246.3907623291016	-1185.177001953125	48.32701110839844	-321.6667175292969	-1149.596069335938	343.9997863769531	-292.7931518554688	-979.9597778320312	43.33383178710938	-310.7171630859375	-1034.966674804688	52.07285690307617	-362.5833740234375	-1079.875122070312	46.46430587768555	-276.1333618164062	-1221.218994140625	38.80619049072266	-381.9634094238281	
87	0.86	-1163.020874023438	975.806884765625	-418.7919616699219	-1102.630249023438	973.3472290039062	-527.7007446289062	-1148.046508789062	1033.543701171875	-483.018798828125	-941.0094604492188	1199.233520507812	-398.0738830566406	-1161.799926757812	1140.447998046875	-485.7293090820312	-1117.545532226562	1370.268798828125	-469.8684997558594	-974.1434936523438	1293.915893554688	-413.1213989257812	-1194.455688476562	1250.452270507812	-406.0628356933594	-1109.243286132812	1315.00341796875	-559.2554931640625	-993.058837890625	1359.497314453125	-594.3031005859375	-982.959228515625	1232.62158203125	-654.4351806640625	-969.611572265625	1022.702026367188	-674.8059692382812	-1062.088623046875	1015.853271484375	-639.5357055664062	-902.1121826171875	836.5125122070312	-604.4524536132812	-957.45263671875	801.3491821289062	-671.73291015625	-954.2128295898438	941.7999267578125	-670.0049438476562	-903.9259643554688	679.272705078125	-595.8695678710938	-936.3034057617188	746.5464477539062	-658.6546020507812	-885.7034912109375	758.1558837890625	-620.1827392578125	-1120.291015625	1367.396850585938	-311.0061950683594	-1156.166748046875	1299.7607421875	-262.7350158691406	-1155.575439453125	1031.073608398438	-218.1092529296875	-1195.415161132812	1014.66357421875	-268.7469482421875	-1045.910522460938	830.5236206054688	-226.0581512451172	-1130.06201171875	806.8038330078125	-199.8319396972656	-1151.223510742188	976.9158935546875	-210.7292785644531	-1041.6513671875	671.3059692382812	-228.4181365966797	-1036.48193359375	736.5470581054688	-200.78955078125	-1107.2861328125	733.1922607421875	-194.8887023925781	-1113.811279296875	1528.381103515625	-386.4214172363281	-931.589111328125	1586.065795898438	-449.8389587402344	-994.9431762695312	1581.661987304688	-338.9012451171875	-1047.968505859375	1530.181884765625	-531.7352294921875	-951.9927368164062	897.9259643554688	-598.8504028320312	-1126.07958984375	868.592041015625	-263.4711303710938	-1007.285949707031	908.6298828125	-275.3612670898438	-900.3333740234375	924.2128295898438	-493.0368041992188	-979.3284912109375	472.732177734375	-571.959716796875	-950.4974975585938	630.7898559570312	-583.0501098632812	-1072.949951171875	48.65294647216797	-595.27587890625	-1011.951843261719	324.8607482910156	-588.4946899414062	-922.9168090820312	39.71949768066406	-454.6766967773438	-1006.40185546875	45.76050186157227	-459.3230590820312	-971.48974609375	45.40208053588867	-555.0977783203125	-1141.947631835938	47.8642463684082	-559.345703125	-1148.650024414062	485.5163269042969	-282.6239624023438	-1116.54248046875	742.2985229492188	-246.4622955322266	-1185.173583984375	48.33799362182617	-321.670166015625	-1149.47998046875	344.0028076171875	-292.8854064941406	-979.9507446289062	43.3275032043457	-310.7185668945312	-1034.959350585938	52.06761932373047	-362.5881042480469	-1079.871704101562	46.4634895324707	-276.1354064941406	-1221.214477539062	38.81430435180664	-381.9701538085938	
